<svg xmlns="http://www.w3.org/2000/svg" viewBox="0 0 100 100" width="100" height="100">
  <g fill="#BE185D" stroke="#BE185D" stroke-width="2" stroke-linejoin="round" stroke-linecap="round">
    <!-- Stem -->
    <path d="M 50 50 Q 52 70, 48 90" fill="none" stroke-width="3"/>
    <!-- Leaf on stem -->
    <path d="M 51 68 Q 62 66, 66 74 Q 58 76, 51 72 Z"/>
    <!-- Rose bud - outer petals -->
    <path d="M 30 38
             Q 28 20, 50 18
             Q 72 20, 70 38
             Q 68 54, 50 54
             Q 32 54, 30 38 Z"/>
    <!-- Inner petal swirl lines -->
    <g fill="none" stroke="#FFFFFF" stroke-width="1.8">
      <path d="M 38 38 Q 42 28, 52 28 Q 62 30, 62 40"/>
      <path d="M 44 40 Q 46 34, 54 34 Q 58 36, 56 42"/>
      <path d="M 48 42 Q 50 38, 54 40"/>
    </g>
  </g>
</svg>
